<?xml version="1.0" encoding="UTF-8"?>
<svg width="40px" height="51px" viewBox="0 0 40 51" version="1.1" xmlns="http://www.w3.org/2000/svg" xmlns:xlink="http://www.w3.org/1999/xlink">
    <g id="Page-1" stroke="none" stroke-width="1" fill="none" fill-rule="evenodd">
        <g id="Group-4-Copy" transform="translate(-40.000000, -40.000000)" fill="#C1297D">
            <g id="dlg-svg" transform="translate(40.000000, 40.000000)">
                <g id="Page-1">
                    <g id="Rectangle-1-+-Stroke-2-+-Fill-1-Copy-3">
                        <g id="Stroke-2-+-Fill-1-+-Fill-1-Copy">
                            <g id="Stroke-2-+-Fill-1" transform="translate(0.041451, 0.118583)">
                                <path d="M39.2159494,23.9326682 C38.8636696,23.5841065 38.436184,23.4078673 37.9414091,23.4078673 C37.446634,23.4078673 37.0191486,23.5841065 36.6629105,23.9326682 C36.314589,24.2851464 36.1364701,24.7042038 36.1364701,25.193757 C36.1364701,27.1754677 35.4319105,28.8673632 34.0267496,30.2537775 C32.6176305,31.6480247 30.9116464,32.3451482 28.9087973,32.3451482 C26.9059484,32.3451482 25.2039225,31.6480247 23.7987615,30.2537775 C22.6706746,29.1375965 22.0017389,27.8295107 21.7800798,26.337353 L21.7800798,1.96152622 C21.7800798,1.47197314 21.6019606,1.05291571 21.249681,0.704353921 C20.8934429,0.351875707 20.4699156,0.175636601 19.9711824,0.175636601 C19.9553497,0.175636601 19.943475,0.179553026 19.9276423,0.179553026 C19.9118095,0.179553026 19.8959767,0.175636601 19.8841021,0.175636601 C19.3853689,0.175636601 18.9618415,0.351875707 18.6056036,0.704353921 C18.2533238,1.05291571 18.0752048,1.47197314 18.0752048,1.96152622 L18.0752048,17.0985073 C16.0683976,15.3321998 13.6934777,14.4510043 10.942529,14.4510043 C7.94617179,14.4510043 5.39313299,15.4966896 3.27945436,17.5880603 C1.30431272,19.5423562 0.251431606,21.8765453 0.120811017,24.5906275 C0.112894618,24.6650396 0.108936418,24.7394516 0.108936418,24.8138638 L0.108936418,25.1741748 L0.108936418,25.1859242 L0.108936418,26.200278 C0.108936418,26.4274306 0.148518415,26.642834 0.223724209,26.8386553 C0.231640609,26.9052345 0.247473407,26.9757301 0.259348006,27.0423092 C0.283097204,27.1793842 0.306846402,27.316459 0.338512,27.4574503 C0.358302999,27.5749431 0.386010396,27.6963522 0.417675994,27.813845 C0.433508794,27.888257 0.453299791,27.9626692 0.47309079,28.0292483 C0.540380184,28.2838159 0.615585979,28.5305506 0.698708172,28.7733689 C0.71454097,28.8086167 0.726415569,28.8399482 0.734331969,28.8712795 C1.26077253,30.3086075 2.09595266,31.6127769 3.27945436,32.7798714 C5.39313299,34.8712421 7.94617179,35.9169275 10.942529,35.9169275 C13.7330598,35.9169275 16.1396452,35.0044006 18.1622852,33.1910959 L18.1622852,39.4926231 C18.1622852,41.474334 17.4616839,43.1583965 16.056523,44.5526437 C14.6474039,45.9429745 12.945378,46.6440145 10.942529,46.6440145 C8.93967992,46.6440145 7.23765405,45.9429745 5.82853496,44.5526437 C4.42337407,43.1583965 3.71881453,41.474334 3.71881453,39.4926231 C3.71881453,38.9991535 3.54465374,38.5761796 3.18841577,38.2276179 C2.836136,37.8790562 2.40865045,37.7028171 1.91387548,37.7028171 C1.41514232,37.7028171 0.991614949,37.8790562 0.639335177,38.2276179 C0.287055405,38.5761796 0.108936418,38.9991535 0.108936418,39.4926231 C0.108936418,42.45344 1.16577573,44.9834504 3.27945436,47.0748212 C5.39313299,49.1701084 7.94617179,50.2118772 10.942529,50.2118772 C13.9349279,50.2118772 16.4919249,49.1701084 18.6056036,47.0748212 C20.7192822,44.9834504 21.7800798,42.45344 21.7800798,39.4926231 L21.7800798,33.2694244 C23.786887,35.0318156 26.1618068,35.9169275 28.9087973,35.9169275 C31.9051546,35.9169275 34.4621515,34.8712421 36.5758301,32.7798714 C38.6895088,30.6885007 39.7463482,28.1584902 39.7463482,25.193757 C39.7463482,24.7042038 39.5721874,24.2851464 39.2159494,23.9326682 L39.2159494,23.9326682 L39.2159494,23.9326682 Z M18.1029122,26.1650302 C18.0831212,26.3177708 18.059372,26.4705112 18.0316646,26.6193354 C18.0158318,26.6937475 17.999999,26.7642432 17.9841662,26.8386553 C17.9683334,26.9130673 17.9485424,26.9874795 17.9287514,27.0618914 C17.881253,27.2381305 17.8258382,27.4182862 17.7664652,27.5945253 C17.7664652,27.5945253 17.762507,27.6023581 17.762507,27.6062744 C17.4181436,28.5736313 16.8481629,29.4509104 16.056523,30.2341953 C14.6474039,31.6206097 12.945378,32.3216497 10.942529,32.3216497 C8.93967992,32.3216497 7.23765405,31.6206097 5.82853496,30.2341953 C4.42337407,28.8438645 3.72277273,27.1637186 3.71881453,25.1859242 C3.72277273,23.2081295 4.42337407,21.5279836 5.82853496,20.1337363 C7.23765405,18.7434056 8.93967992,18.046282 10.942529,18.046282 C12.945378,18.046282 14.6474039,18.7434056 16.056523,20.1337363 C17.1727353,21.2420845 17.8456292,22.5345046 18.0752048,24.0109966 L18.0752048,25.193757 C18.0752048,25.4992381 18.0910376,25.7929698 18.1108286,26.0867017 C18.1068704,26.1141167 18.1068704,26.1415317 18.1029122,26.1650302 L18.1029122,26.1650302 L18.1029122,26.1650302 Z" id="Fill-1"></path>
                            </g>
                        </g>
                    </g>
                </g>
            </g>
        </g>
    </g>
</svg>