<svg width="40" height="51" viewBox="0 0 40 51" fill="none" xmlns="http://www.w3.org/2000/svg">
<path fill-rule="evenodd" clip-rule="evenodd" d="M39.2574 24.0513C38.9051 23.7027 38.4776 23.5265 37.9829 23.5265C37.4881 23.5265 37.0606 23.7027 36.7044 24.0513C36.356 24.4037 36.1779 24.8228 36.1779 25.3123C36.1779 27.2941 35.4734 28.9859 34.0682 30.3724C32.6591 31.7666 30.9531 32.4637 28.9503 32.4637C26.9474 32.4637 25.2454 31.7666 23.8402 30.3724C22.7121 29.2562 22.0432 27.9481 21.8215 26.4559V2.08011C21.8215 1.59056 21.6434 1.1715 21.2911 0.822937C20.9349 0.470459 20.5114 0.29422 20.0126 0.29422C19.9968 0.29422 19.9849 0.298136 19.9691 0.298136C19.9533 0.298136 19.9374 0.29422 19.9256 0.29422C19.4268 0.29422 19.0033 0.470459 18.6471 0.822937C18.2948 1.1715 18.1167 1.59056 18.1167 2.08011V17.2171C16.1099 15.4508 13.7349 14.5696 10.984 14.5696C7.98763 14.5696 5.43459 15.6153 3.32091 17.7066C1.34577 19.6609 0.292886 21.9951 0.162265 24.7092C0.154349 24.7836 0.150391 24.858 0.150391 24.9324V26.3189C0.150391 26.546 0.189973 26.7614 0.265178 26.9572C0.273095 27.0238 0.288928 27.0943 0.300802 27.1609C0.324551 27.298 0.348301 27.435 0.379966 27.576C0.399757 27.6935 0.427465 27.8149 0.45913 27.9324C0.474963 28.0068 0.494754 28.0813 0.514545 28.1478C0.581834 28.4024 0.65704 28.6491 0.740162 28.892C0.755995 28.9272 0.76787 28.9585 0.775786 28.9899C1.30223 30.4272 2.13741 31.7314 3.32091 32.8985C5.43459 34.9898 7.98763 36.0355 10.984 36.0355C13.7745 36.0355 16.1811 35.123 18.2037 33.3097V39.6112C18.2037 41.5929 17.5031 43.277 16.098 44.6712C14.6889 46.0616 12.9868 46.7626 10.984 46.7626C8.98113 46.7626 7.27911 46.0616 5.86999 44.6712C4.46483 43.277 3.76027 41.5929 3.76027 39.6112C3.76027 39.1177 3.58611 38.6948 3.22987 38.3462C2.87759 37.9976 2.4501 37.8214 1.95533 37.8214C1.4566 37.8214 1.03307 37.9976 0.680789 38.3462C0.32851 38.6948 0.150391 39.1177 0.150391 39.6112C0.150391 42.572 1.20723 45.102 3.32091 47.1934C5.43459 49.2887 7.98763 50.3305 10.984 50.3305C13.9764 50.3305 16.5334 49.2887 18.6471 47.1934C20.7607 45.102 21.8215 42.572 21.8215 39.6112V33.388C23.8283 35.1504 26.2033 36.0355 28.9503 36.0355C31.9466 36.0355 34.5036 34.9898 36.6173 32.8985C38.731 30.8071 39.7878 28.2771 39.7878 25.3123C39.7878 24.8228 39.6136 24.4037 39.2574 24.0513ZM18.1444 26.2836C18.1246 26.4364 18.1008 26.5891 18.0731 26.7379C18.0573 26.8123 18.0415 26.8828 18.0256 26.9572C18.0098 27.0317 17.99 27.1061 17.9702 27.1805C17.9227 27.3567 17.8673 27.5369 17.8079 27.7131C17.8079 27.7131 17.804 27.7209 17.804 27.7249C17.4596 28.6922 16.8896 29.5695 16.098 30.3528C14.6889 31.7392 12.9868 32.4402 10.984 32.4402C8.98113 32.4402 7.27911 31.7392 5.86999 30.3528C4.46483 28.9624 3.76423 27.2823 3.76027 25.3045C3.76423 23.3267 4.46483 21.6466 5.86999 20.2523C7.27911 18.862 8.98113 18.1649 10.984 18.1649C12.9868 18.1649 14.6889 18.862 16.098 20.2523C17.2142 21.3607 17.8871 22.6531 18.1167 24.1296V25.3123C18.1167 25.6178 18.1325 25.9116 18.1523 26.2053C18.1483 26.2327 18.1483 26.2601 18.1444 26.2836Z" fill="#C1297D"/>
</svg>
